<svg width="56" height="55" viewBox="0 0 56 55" fill="none" xmlns="http://www.w3.org/2000/svg">
<path d="M26.5493 1.10668C26.6779 0.830333 26.8827 0.596458 27.1397 0.43258C27.3967 0.268703 27.6952 0.181641 28 0.181641C28.3048 0.181641 28.6032 0.268703 28.8602 0.43258C29.1172 0.596458 29.3221 0.830333 29.4506 1.10668L37.088 17.472C37.2469 17.8126 37.5207 18.0864 37.8613 18.2454L54.2266 25.8827C54.503 26.0113 54.7369 26.2161 54.9007 26.4731C55.0646 26.7301 55.1517 27.0286 55.1517 27.3334C55.1517 27.6382 55.0646 27.9366 54.9007 28.1936C54.7369 28.4506 54.503 28.6554 54.2266 28.784L37.8613 36.4214C37.5207 36.5803 37.2469 36.8541 37.088 37.1947L29.4506 53.56C29.3221 53.8364 29.1172 54.0702 28.8602 54.2341C28.6032 54.398 28.3048 54.4851 28 54.4851C27.6952 54.4851 27.3967 54.398 27.1397 54.2341C26.8827 54.0702 26.6779 53.8364 26.5493 53.56L18.912 37.1947C18.753 36.8541 18.4793 36.5803 18.1386 36.4214L1.77331 28.784C1.49696 28.6554 1.26308 28.4506 1.09921 28.1936C0.935328 27.9366 0.848267 27.6382 0.848267 27.3334C0.848267 27.0286 0.935328 26.7301 1.09921 26.4731C1.26308 26.2161 1.49696 26.0113 1.77331 25.8827L18.1386 18.2454C18.4793 18.0864 18.753 17.8126 18.912 17.472L26.5493 1.10668Z" fill="url(#paint0_linear_3_3)"/>
<defs>
<linearGradient id="paint0_linear_3_3" x1="28" y1="0.181641" x2="28" y2="54.4851" gradientUnits="userSpaceOnUse">
<stop stop-color="#2CC2FF"/>
<stop offset="0.895705" stop-color="#74D6FF"/>
</linearGradient>
</defs>
</svg>
